<?xml version="1.0" encoding="UTF-8" standalone="no"?>
<svg xmlns="http://www.w3.org/2000/svg" version="1.1"
     width="949.341560pt" height="228.741166pt" viewBox="0 0 949.341560 228.741166">
  <!-- Kalix wordmark, vector-traced from the approved artwork.
       Font-independent and transparent: renders identically and crisply on
       macOS, Windows and Linux at any display scale (via FlatSVGIcon). -->
  <g transform="translate(-43.500000,234.848547) scale(0.100000,-0.100000)"
fill="#ffffff" stroke="none">
<path d="M9160 2335 c-25 -30 -28 -109 -15 -335 8 -124 15 -301 17 -395 3
-166 2 -170 -18 -173 -46 -7 -196 68 -321 159 -104 77 -177 103 -207 74 -20
-20 -14 -49 18 -84 53 -58 405 -267 491 -291 l45 -13 0 -243 c0 -133 -3 -245
-7 -247 -11 -7 -259 75 -310 101 -24 12 -64 36 -90 52 -68 44 -108 40 -126
-13 -16 -43 151 -155 300 -202 48 -15 121 -39 161 -52 l72 -26 0 -272 c0 -271
0 -272 23 -293 30 -28 58 -28 86 2 l22 23 -1 422 0 421 32 20 c18 11 116 63
218 115 190 97 352 206 372 249 15 35 3 74 -27 82 -40 10 -71 -3 -121 -52 -70
-68 -117 -97 -300 -184 -92 -44 -168 -80 -170 -80 -9 0 -3 154 8 194 9 36 9
50 -1 73 -8 16 -16 80 -19 149 l-5 122 49 28 c123 72 327 245 345 292 11 30 4
58 -17 66 -26 10 -76 -19 -169 -100 -98 -85 -170 -134 -195 -134 -19 0 -21 13
-41 325 -6 99 -16 191 -23 205 -13 30 -57 38 -76 15z"/>
<path d="M1254 1862 l-72 -3 -287 -330 c-157 -181 -285 -334 -283 -338 2 -5
134 -163 293 -350 l290 -341 83 0 82 0 -300 351 -299 350 266 307 c146 169
275 317 286 329 11 13 19 24 16 25 -2 2 -36 2 -75 0z"/>
<path d="M5754 1861 c-2 -2 -4 -310 -4 -683 l0 -678 70 0 70 0 0 679 0 679
-66 4 c-36 1 -68 1 -70 -1z"/>
<path d="M435 1180 l0 -680 68 0 67 0 0 680 0 680 -67 0 -68 0 0 -680z"/>
<path d="M2580 1856 c0 -2 -97 -266 -216 -587 -119 -321 -231 -626 -249 -676
l-34 -93 63 0 63 0 75 208 76 207 283 0 284 0 76 -205 76 -205 71 -3 70 -3
-67 183 c-38 101 -150 407 -251 681 l-183 497 -69 0 c-37 0 -68 -2 -68 -4z
m180 -488 c63 -172 116 -319 118 -325 3 -10 -49 -13 -238 -13 -150 0 -240 4
-238 10 53 153 235 640 239 640 3 0 57 -141 119 -312z"/>
<path d="M4080 1180 l0 -680 385 0 385 0 0 55 0 55 -320 0 -320 0 0 625 0 625
-65 0 -65 0 0 -680z"/>
<path d="M6816 1848 c4 -7 99 -156 211 -331 l203 -318 -192 -297 c-105 -163
-207 -321 -225 -349 l-34 -53 70 0 69 0 128 202 c70 112 157 247 191 301 l64
99 191 -301 190 -301 75 0 75 0 -14 23 c-9 12 -102 159 -208 327 -106 168
-199 314 -206 325 -12 19 4 50 191 350 l205 330 -66 3 c-37 2 -70 -1 -75 -5
-4 -4 -78 -125 -164 -268 -86 -143 -163 -266 -169 -273 -10 -10 -48 43 -191
268 l-179 280 -74 0 c-56 0 -71 -3 -66 -12z"/>
</g>
</svg>
