<?xml version="1.0" encoding="UTF-8" standalone="no"?>
<svg
   version="1.1"
   id="svg51"
   width="1024"
   height="200"
   viewBox="0 0 870.4 170"
   sodipodi:docname="kalix_version_final.svg"
   inkscape:version="1.3.2 (091e20e, 2023-11-25, custom)"
   inkscape:export-filename="banner\kalix_banner-124-24.png"
   inkscape:export-xdpi="11.625"
   inkscape:export-ydpi="11.625"
   xmlns:inkscape="http://www.inkscape.org/namespaces/inkscape"
   xmlns:sodipodi="http://sodipodi.sourceforge.net/DTD/sodipodi-0.dtd"
   xmlns="http://www.w3.org/2000/svg"
   xmlns:svg="http://www.w3.org/2000/svg"
   xmlns:rdf="http://www.w3.org/1999/02/22-rdf-syntax-ns#"
   xmlns:cc="http://creativecommons.org/ns#"
   xmlns:dc="http://purl.org/dc/elements/1.1/">
  <metadata
     id="metadata57">
    <rdf:RDF>
      <cc:Work
         rdf:about="">
        <dc:format>image/svg+xml</dc:format>
        <dc:type
           rdf:resource="http://purl.org/dc/dcmitype/StillImage" />
      </cc:Work>
    </rdf:RDF>
  </metadata>
  <defs
     id="defs55">
    <clipPath
       clipPathUnits="userSpaceOnUse"
       id="clipPath964">
      <rect
         style="fill:none;stroke:#000000;stroke-width:10;stroke-miterlimit:4;stroke-dasharray:none;stroke-opacity:1"
         id="rect966"
         width="243.77592"
         height="279.50171"
         x="809.08386"
         y="145.00464" />
    </clipPath>
    <clipPath
       clipPathUnits="userSpaceOnUse"
       id="clipPath1007">
      <rect
         style="fill:#000000;stroke:#000000;stroke-width:10"
         id="rect1009"
         width="808.69861"
         height="1070.8591"
         x="91.089684"
         y="-62.207588" />
    </clipPath>
  </defs>
  <sodipodi:namedview
     pagecolor="#ffffff"
     bordercolor="#666666"
     borderopacity="1"
     objecttolerance="10"
     gridtolerance="10"
     guidetolerance="10"
     inkscape:pageopacity="1"
     inkscape:pageshadow="2"
     inkscape:window-width="2148"
     inkscape:window-height="1417"
     id="namedview53"
     showgrid="false"
     inkscape:lockguides="false"
     inkscape:snap-nodes="false"
     inkscape:snap-bbox="false"
     inkscape:zoom="0.81431006"
     inkscape:cx="521.91422"
     inkscape:cy="288.58786"
     inkscape:window-x="1071"
     inkscape:window-y="325"
     inkscape:window-maximized="0"
     inkscape:current-layer="g59"
     inkscape:document-rotation="0"
     scale-x="0.85"
     inkscape:pagecheckerboard="true"
     showguides="false"
     inkscape:showpageshadow="true"
     inkscape:deskcolor="#d1d1d1"
     borderlayer="true"
     showborder="true"
     labelstyle="default"
     inkscape:clip-to-page="false">
    <inkscape:grid
       type="xygrid"
       id="grid64"
       originx="0"
       originy="0"
       spacingy="1"
       spacingx="1"
       units="px"
       visible="false" />
  </sodipodi:namedview>
  <g
     inkscape:groupmode="layer"
     inkscape:label="Image"
     id="g59"
     style="display:inline">
    <path
       style="display:inline;fill:#000000;stroke-width:3.39848"
       d="m 522.92631,945.72008 -8.34158,-8.34173 -0.034,-104.65797 -0.034,-104.65793 -29.70414,-10.8442 c -16.33721,-5.96431 -34.57518,-11.799 -40.529,-12.96596 C 393.68046,694.33305 307.277,644.01652 307.277,624.46578 c 0,-25.12689 22.80384,-29.11852 50.92633,-8.91434 19.81862,14.23817 50.41926,29.12024 76.51692,37.21261 9.34584,2.89796 29.41221,9.1734 44.59223,13.94542 15.18002,4.77205 29.24499,8.67644 31.25588,8.67644 2.51862,0 3.69653,-29.48371 3.78625,-94.76677 l 0.12915,-94.76677 -15.94094,-4.01398 c -38.72976,-9.75224 -186.5449,-98.97815 -197.71811,-119.34875 -20.50307,-37.38091 19.57018,-41.35927 65.92487,-6.54487 79.03656,59.36011 152.45815,89.46326 146.25659,59.96596 -0.84452,-4.0183 -2.38506,-40.18639 -3.4233,-80.3735 -1.03823,-40.18711 -3.77877,-97.53657 -6.09008,-127.44325 -8.56759,-110.860039 -5.4522,-134.240235 17.88793,-134.240235 18.2825,0 21.35507,8.529388 24.21219,67.211915 1.43109,29.38889 4.19101,71.7862 6.13324,94.2162 1.94257,22.43002 3.55618,44.98748 3.58575,50.12769 0.10194,17.81905 42.68839,-10.15579 111.15056,-73.01517 28.4229,-26.09677 56.89713,-14.02596 40.35873,17.1089 -9.3608,17.62265 -83.83218,79.71849 -122.16846,101.86669 l -26.78789,15.47637 1.63841,48.26783 c 1.26934,37.38715 2.90298,50.07269 7.24659,56.27439 6.93802,9.90498 7.1579,20.13881 0.61852,28.78443 -3.61258,4.77616 -5.01956,16.19141 -5.09772,41.35992 l -0.10871,34.76299 29.29733,-15.07532 c 16.11359,-8.29141 40.96502,-19.89783 55.22541,-25.79203 37.16993,-15.3633 79.89128,-42.00648 92.12686,-57.4552 23.10632,-29.17409 56.45422,-36.92145 64.77072,-15.04744 5.8491,15.3841 -2.4099,27.46991 -35.349,51.72847 -45.69334,33.65172 -53.94928,38.51892 -118.37473,69.78641 -32.3451,15.69797 -65.51671,32.93632 -73.7142,38.30746 l -14.90475,9.76566 1.72542,161.27478 1.72575,161.27475 -9.49911,9.49921 c -11.70371,11.70368 -21.37376,12.05056 -32.26694,1.15743 z M -141.3232,798.75506 c -7.6483,-2.75801 -33.98487,-29.00261 -33.98487,-33.86612 0,-2.33171 -14.14621,-15.59176 -31.436,-29.46675 -17.2898,-13.87504 -51.86601,-46.44087 -76.83639,-72.36857 -79.58849,-82.64043 -96.95441,-99.81778 -100.91256,-99.81778 -3.46028,0 -120.31632,120.9233 -162.61213,168.2719 -18.54441,20.75982 -31.71637,24.27301 -46.4067,12.37749 -16.70092,-13.52356 -4.59663,-40.00256 31.99159,-69.98385 8.00751,-6.56156 44.76741,-43.29033 81.68864,-81.61952 l 67.12952,-69.68937 -10.48188,-12.81358 c -59.13466,-72.28902 -143.96704,-192.45685 -148.43669,-210.26537 -8.3089,-33.10523 24.8775,-43.06871 41.1256,-12.34704 12.82028,24.24045 57.04758,86.31269 95.20276,133.61538 18.69167,23.17293 38.20008,47.88237 43.35202,54.90993 12.62547,17.22204 11.73303,17.66258 47.48817,-23.44011 32.84842,-37.76154 75.18982,-79.92989 134.30956,-133.76114 25.10088,-22.85558 34.83449,-33.92673 34.83449,-39.62149 0,-19.60812 24.55237,-27.83998 39.23723,-13.15528 19.85023,19.85033 9.60922,35.7809 -70.18385,109.17652 -30.64314,28.18631 -62.37617,59.53734 -70.51792,69.66899 -8.14141,10.13166 -27.74831,32.5681 -43.57064,49.85876 l -28.76751,31.43759 35.07442,38.07417 c 69.1208,75.03216 103.64196,109.14505 142.12675,140.44515 68.95802,56.08444 74.920323,63.18056 68.11724,81.07383 -4.72628,12.43067 -22.49187,18.72936 -37.53085,13.30626 z m -1837.7811,-31.73419 c -22.4746,-9.02902 -11.5974,-82.27702 16.7193,-112.59017 7.8607,-8.41498 15.4757,-26.26758 31.5986,-74.08058 41.3662,-122.67324 75.6865,-215.99549 89.621,-243.69461 5.4812,-10.89549 11.0784,-26.69189 12.438,-35.10314 7.0246,-43.45534 47.0954,-41.85587 56.2381,2.24479 17.2667,83.28726 155.1263,388.06441 187.7979,415.17944 15.4383,12.81261 13.8237,38.49225 -2.818,44.81942 -10.2726,3.9056 -22.4622,-1.2814 -35.2968,-15.01975 -4.5315,-4.85049 -10.9458,-8.81911 -14.2541,-8.81911 -3.3083,0 -10.306,-3.79315 -15.5505,-8.42923 -11.9235,-10.54041 -74.1554,-30.2257 -193.644,-61.25388 -32.9363,-8.5527 -34.9908,-8.70618 -43.3368,-3.23768 -4.8187,3.15736 -11.6687,4.98032 -15.2224,4.05103 -5.4363,-1.42161 -8.2262,2.96277 -17.5903,27.64272 -24.5587,64.72761 -34.8165,77.08234 -56.7,68.29075 z m 286.1177,-144.61146 c -12.3078,-26.00338 -29.8229,-62.57205 -38.9227,-81.26373 -14.1298,-29.02396 -38.9264,-92.2837 -62.9437,-160.5785 -3.4509,-9.81313 -7.3318,-17.84206 -8.6241,-17.84206 -2.7325,0 -20.5097,47.56227 -45.7288,122.34553 -9.7702,28.9721 -23.4126,68.53843 -30.3166,87.92521 -15.3798,43.1881 -23.3785,36.85975 79.857,63.18127 47.5982,12.13593 95.7181,25.00144 106.9331,28.5901 25.7136,8.22802 25.7396,12.56078 -0.2543,-42.35782 z m 848.17664,140.32454 c -12.58688,-6.31452 -16.58312,-23.01692 -16.83332,-70.35561 -0.12337,-23.36459 -2.39579,-62.36222 -5.04954,-86.66141 -9.73156,-89.10768 -12.76659,-158.40065 -10.69163,-244.1012 2.25112,-92.9768 3.27766,-97.44672 22.37903,-97.44672 20.00761,0 20.91952,4.23702 22.44523,104.28872 1.45296,95.28221 5.21308,162.96291 13.18131,237.2592 14.72557,137.30237 8.7548,174.16721 -25.43108,157.01702 z m -550.81464,-12.31822 c -8.8112,-8.81122 -10.1924,-12.21379 -8.0735,-19.88994 1.406,-5.09318 2.2612,-11.93662 1.9006,-15.20766 -0.6489,-5.88615 -0.6167,-16.17078 0.1384,-44.18033 0.2141,-7.94396 -0.7946,-63.38178 -2.2416,-123.19514 -4.766,-197.01919 8.2347,-293.96911 39.4205,-293.96911 15.6233,0 22.0277,12.87411 17.4137,35.00506 -11.0999,53.24005 -14.0493,296.47206 -4.7473,391.50503 l 2.3286,23.78941 64.5712,-0.96235 c 35.5142,-0.52928 98.981,-2.14866 141.0372,-3.59856 84.2942,-2.90611 96.562,-1.16948 100.4234,14.21587 5.2779,21.02845 -4.4736,25.76702 -56.243,27.33077 -19.6263,0.59283 -58.6239,2.88311 -86.6614,5.0895 -28.0376,2.20641 -77.7404,5.4731 -110.4509,7.25934 -32.7104,1.78629 -65.9339,4.1905 -73.8298,5.34273 -12.9069,1.88351 -15.4295,1.02183 -24.986,-8.53462 z m -1089.8543,-3.78578 c -11.8087,-4.74405 -14.9719,-17.63329 -17.902,-72.94328 -4.5244,-85.40877 -13.576,-213.80791 -15.4418,-219.04617 -0.968,-2.71785 -0.6836,-39.27924 0.632,-81.24755 2.5499,-81.33793 4.3274,-88.83302 21.0666,-88.83302 18.2817,0 19.0499,3.20973 23.3183,97.42839 2.1873,48.28404 5.0692,100.86482 6.4041,116.8462 l 2.4272,29.05706 h 11.8057 c 17.0172,0 248.5981,-216.4486 264.5172,-247.23271 9.3623,-18.10461 45.2527,-20.1137 50.7352,-2.84008 3.1334,9.87261 -3.8814,25.47877 -13.4025,29.81684 -4.3051,1.96153 -23.1547,20.89409 -41.8879,42.07231 -33.22,37.55576 -94.5968,98.99843 -167.9917,168.172 l -36.3475,34.25702 15.9566,10.3189 c 8.7761,5.6754 25.8971,16.20157 38.0468,23.39152 32.9536,19.50136 72.7237,45.15943 96.3043,62.13151 21.0541,15.15374 87.5581,48.38571 105.1425,52.53965 32.3143,7.63354 29.0682,49.63408 -3.8361,49.63408 -8.9378,0 -102.487,-45.21047 -114.8551,-55.50711 -5.3285,-4.43614 -34.9219,-24.56426 -65.7632,-44.72912 -30.8413,-20.16485 -64.0923,-42.04611 -73.8911,-48.62503 -20.5833,-13.81955 -35.7936,-15.81 -49.4648,-6.4731 l -9.5065,6.49261 1.93,37.88714 c 1.0616,20.83792 2.7423,50.49454 3.7348,65.90356 2.3816,36.97207 -8.2941,50.94406 -31.7311,41.52838 z"
       id="path1003"
       clip-path="url(#clipPath1007)"
       transform="matrix(0.1838251,0,0,0.1838251,697.83503,-7.281116)" />
    <g
       aria-label="K A L I X"
       id="text68"
       style="display:inline;font-style:normal;font-variant:normal;font-weight:200;font-stretch:normal;font-size:120px;line-height:1.25;font-family:'Apple SD Gothic Neo';-inkscape-font-specification:'Apple SD Gothic Neo, Ultra-Light';font-variant-ligatures:normal;font-variant-caps:normal;font-variant-numeric:normal;font-variant-east-asian:normal;fill:#000000;fill-opacity:1;stroke:none"
       transform="translate(-52.000887,-23.46042)">
      <text
         xml:space="preserve"
         style="font-style:normal;font-weight:normal;font-size:43.1254px;line-height:1.25;font-family:sans-serif;display:inline;fill:#000000;fill-opacity:1;stroke:none;stroke-width:1.07813"
         x="70.338364"
         y="164.40865"
         id="text105"
         sodipodi:insensitive="true"><tspan
           sodipodi:role="line"
           id="tspan107"
           x="70.338364"
           y="164.40865"
           style="font-style:normal;font-variant:normal;font-weight:300;font-stretch:normal;font-size:143.751px;font-family:'Apple SD Gothic Neo';-inkscape-font-specification:'Apple SD Gothic Neo, Light';font-variant-ligatures:normal;font-variant-caps:normal;font-variant-numeric:normal;font-variant-east-asian:normal;stroke-width:1.07813">K<tspan
   style="font-style:normal;font-variant:normal;font-weight:300;font-stretch:normal;font-size:172.501px;font-family:'Apple SD Gothic Neo';-inkscape-font-specification:'Apple SD Gothic Neo, Light';font-variant-ligatures:normal;font-variant-caps:normal;font-variant-numeric:normal;font-variant-east-asian:normal;stroke-width:1.07813"
   id="tspan111"> </tspan>A<tspan
   style="font-style:normal;font-variant:normal;font-weight:300;font-stretch:normal;font-size:172.501px;font-family:'Apple SD Gothic Neo';-inkscape-font-specification:'Apple SD Gothic Neo, Light';font-variant-ligatures:normal;font-variant-caps:normal;font-variant-numeric:normal;font-variant-east-asian:normal;stroke-width:1.07813"
   id="tspan113"> </tspan>L<tspan
   style="font-style:normal;font-variant:normal;font-weight:300;font-stretch:normal;font-size:172.501px;font-family:'Apple SD Gothic Neo';-inkscape-font-specification:'Apple SD Gothic Neo, Light';font-variant-ligatures:normal;font-variant-caps:normal;font-variant-numeric:normal;font-variant-east-asian:normal;stroke-width:1.07813"
   id="tspan115"> </tspan>I<tspan
   style="font-style:normal;font-variant:normal;font-weight:300;font-stretch:normal;font-size:172.501px;font-family:'Apple SD Gothic Neo';-inkscape-font-specification:'Apple SD Gothic Neo, Light';font-variant-ligatures:normal;font-variant-caps:normal;font-variant-numeric:normal;font-variant-east-asian:normal;stroke-width:1.07813"
   id="tspan117"> </tspan>X</tspan></text>
    </g>
  </g>
</svg>
